HIERARCHY
ROOT Hips
{
     OFFSET 1.88212 96.90440 -13.34250
     CHANNELS 6 Xposition Yposition Zposition Zrotation Xrotation Yrotation
     JOINT Spine
     {
          OFFSET 0.00000 11.89050 0.00000
          CHANNELS 3 Zrotation Xrotation Yrotation
          JOINT Spine1
          {
               OFFSET -0.00000 25.65740 0.12766
               CHANNELS 3 Zrotation Xrotation Yrotation
               JOINT HEad
               {
                    OFFSET 0.00000 8.73416 0.01134
                    CHANNELS 3 Zrotation Xrotation Yrotation
                    End Site
                    {
                         OFFSET -0.29000 12.77420 2.51395
                    }
               }
               JOINT LeftShoulder1
               {
                    OFFSET 8.99000 -0.36225 -0.22000
                    CHANNELS 3 Zrotation Xrotation Yrotation
                    JOINT LeftArm
                    {
                         OFFSET 10.28270 -0.00338 0.32212
                         CHANNELS 3 Zrotation Xrotation Yrotation
                         JOINT LeftForeArm
                         {
                              OFFSET 32.76690 0.09914 -1.42434
                              CHANNELS 3 Zrotation Xrotation Yrotation
                              JOINT LeftHand
                              {
                                   OFFSET 27.56430 0.08536 1.02216
                                   CHANNELS 3 Zrotation Xrotation Yrotation
                                   End Site
                                   {
                                        OFFSET 16.74430 -0.60000 1.50291
                                   }
                              }
                         }
                    }
               }
               JOINT RightShoulder
               {
                    OFFSET -8.99000 -0.36225 -0.22000
                    CHANNELS 3 Zrotation Xrotation Yrotation
                    JOINT RightArm
                    {
                         OFFSET -10.28270 -0.00338 0.32212
                         CHANNELS 3 Zrotation Xrotation Yrotation
                         JOINT RightForeArm
                         {
                              OFFSET -32.89710 0.09914 -1.42434
                              CHANNELS 3 Zrotation Xrotation Yrotation
                              JOINT RightHand
                              {
                                   OFFSET -27.49210 0.08536 1.02216
                                   CHANNELS 3 Zrotation Xrotation Yrotation
                                   End Site
                                   {
                                        OFFSET -16.63120 -0.60000 1.50291
                                   }
                              }
                         }
                    }
               }
          }
     }
     JOINT LeftUpLeg
     {
          OFFSET 8.94580 -8.66707 0.10165
          CHANNELS 3 Zrotation Xrotation Yrotation
          JOINT LeftLeg
          {
               OFFSET 0.00000 -44.42270 1.37270
               CHANNELS 3 Zrotation Xrotation Yrotation
               JOINT LeftFoot
               {
                    OFFSET -0.25355 -42.09240 -1.46059
                    CHANNELS 3 Zrotation Xrotation Yrotation
                    JOINT LeftToes
                    {
                         OFFSET -0.04000 -4.41509 8.49910
                         CHANNELS 3 Zrotation Xrotation Yrotation
                         End Site
                         {
                              OFFSET 0.08000 -0.04745 9.77979
                         }
                    }
               }
          }
     }
     JOINT RightUpLeg
     {
          OFFSET -8.94580 -8.66707 0.10165
          CHANNELS 3 Zrotation Xrotation Yrotation
          JOINT RightLeg
          {
               OFFSET 0.00000 -44.42270 1.37270
               CHANNELS 3 Zrotation Xrotation Yrotation
               JOINT RightFoot
               {
                    OFFSET 0.25355 -42.09240 -1.46059
                    CHANNELS 3 Zrotation Xrotation Yrotation
                    JOINT RightToes
                    {
                         OFFSET 0.04000 -4.41509 8.49910
                         CHANNELS 3 Zrotation Xrotation Yrotation
                         End Site
                         {
                              OFFSET -0.08000 -0.13745 9.77979
                         }
                    }
               }
          }
     }
}
MOTION
Frames: 10
Frame Time: 0.01667
98.25798 83.23621 -104.82826 -10.98617 -0.67587 -38.97664 11.10412 13.08042 -1.99657 -0.08785 0.10885 0.07640 -2.68557 19.03005 5.81314 -15.99302 12.02430 16.47605 -104.53520 -58.40551 -85.37659 -41.70018 56.43074 -102.18666 6.39141 8.68355 2.02748 0.38321 20.65345 25.71760 71.54034 -27.02748 74.34174 29.22853 48.03070 109.11366 -7.61203 13.06845 -1.56249 5.59410 -29.62399 20.85267 368.18655 50.01506 -364.37378 19.59136 -0.55833 0.46609 -17.41315 -2.89975 -17.26793 -25.38242 -14.92142 7.88407 -286.53983 54.20943 316.14822 15.63331 -0.19788 -0.67648 8.51238 2.04658 -8.07189 
100.97626 86.51286 -103.73395 -8.52634 -0.80724 -42.32087 7.98167 13.27824 -0.10301 -0.08192 0.09961 0.06181 -3.75408 20.80671 6.03138 -15.84391 10.22609 16.77727 -102.90058 -58.47856 -83.46082 -40.16507 57.14576 -103.71272 7.21819 8.47969 2.29197 1.10895 18.99423 25.87335 70.20144 -27.28430 72.17429 29.46243 47.75525 110.02222 -6.99980 14.08036 -0.50191 0.73567 -27.84255 17.35591 371.66006 42.25641 -368.48071 9.98143 -0.63627 0.43038 -16.76072 -4.82506 -6.06833 -22.68176 -11.56218 4.47660 -288.02661 56.68064 318.55685 11.51216 0.00563 -0.18908 0.53855 -17.35126 -0.98752 
103.27668 89.18342 -103.08546 -4.43713 -1.27423 -46.26202 3.32944 12.19511 2.81406 0.00005 0.01128 0.02526 -4.80303 22.20074 6.36027 -15.42587 8.70756 16.62465 -101.54840 -58.60574 -81.71079 -38.68119 57.74014 -105.10558 7.14618 8.78974 1.38767 2.07687 17.50750 25.67638 68.78493 -27.38958 70.02110 29.46076 47.57816 111.06882 -6.89382 12.75183 -0.61987 -4.72946 -27.57358 13.84931 374.53668 35.10637 -370.86679 0.06737 -0.71358 0.33690 3.01209 -2.27139 -13.78124 -20.74278 -8.75293 1.38899 -298.29303 57.26001 326.42828 5.00846 -0.18141 -0.05525 -2.74870 -28.89222 -2.71408 
105.41675 91.15649 -102.84445 -0.98886 -1.80834 -49.75090 -0.66830 11.00570 5.33548 0.00139 0.00820 0.02041 -5.62779 23.06290 6.76741 -14.48459 7.42459 15.90264 -100.82097 -58.89166 -80.48952 -37.54707 58.14948 -106.11629 7.49532 8.53910 1.27768 8.70207 11.71142 14.20116 63.66090 -15.95710 67.01012 29.35689 47.36104 111.64734 -6.62214 13.42429 0.34623 -9.45899 -27.37052 9.13102 377.18076 29.00372 -372.26724 -9.90744 -0.77690 0.19223 5.82541 6.32600 -15.60490 -18.23863 -5.10693 -2.03823 -316.55661 54.42834 339.34573 -2.65111 -0.34009 0.18961 0.07808 -38.14042 -9.22095 
107.27750 92.54945 -102.90831 2.13917 -2.41247 -53.12846 -4.35881 9.62888 7.67973 0.00176 0.00554 0.00728 -6.48524 23.43343 7.54110 -11.78839 6.59694 12.00988 -102.73834 -62.27443 -80.31876 -36.55981 58.56638 -107.27384 7.73570 8.46858 1.05593 12.98278 6.86802 7.18296 60.28448 -8.39970 65.36509 29.36489 47.05221 111.95264 -6.46549 13.62875 1.12152 -13.90723 -27.12996 3.96828 379.51892 23.19600 -372.93185 -19.32663 -0.75722 0.08089 8.91628 11.91086 -13.09897 -15.60036 -1.39122 -5.70757 -332.15744 48.73522 350.77609 -9.38059 -0.27265 0.17670 6.01065 -42.59356 -15.82340 
109.23083 93.29760 -103.17084 4.90408 -3.03431 -56.40841 -7.70120 8.13284 9.83752 0.00072 0.00229 0.00179 -7.26367 23.70022 8.34456 -7.71052 6.76888 6.31135 -107.63595 -66.26328 -82.56658 -34.87135 58.04564 -108.70374 7.86416 8.30807 0.86049 15.88330 3.31950 2.71990 58.07424 -3.53284 64.55570 29.42425 46.76192 112.13714 -6.45147 13.62579 1.64794 -17.81793 -26.86655 -1.47465 382.01788 17.82033 -373.27512 -28.36804 -0.73725 -0.01218 10.19682 11.63071 -11.25734 -12.98626 2.08948 -9.41380 -344.48416 40.67422 359.37006 -13.74308 -0.20997 0.12872 4.58047 -46.10994 -21.20039 
111.05975 93.68723 -103.51683 7.32842 -3.64026 -59.59081 -10.70895 6.54490 11.80705 -0.00065 -0.00105 -0.00072 -7.90904 23.47810 9.42513 -4.40038 6.69096 2.68702 -109.46808 -67.58244 -83.06908 -35.12574 57.29117 -108.68495 6.51589 4.27772 -1.29810 17.96644 1.02244 -0.16631 57.36387 -1.63688 63.86098 29.30351 46.45656 112.05711 -5.78122 12.38000 2.57943 -20.90548 -26.59328 -6.94870 384.74753 13.06923 -373.43790 -37.09261 -0.69701 -0.11026 11.98178 6.06521 -8.99502 -10.37026 5.38865 -13.12307 -353.97672 30.80278 365.52292 -15.80235 -0.12240 0.07284 -0.58568 -48.51463 -23.48785 
112.69553 93.33974 -103.88006 8.82470 -4.39297 -62.83853 -13.49649 5.52180 13.40471 -0.01249 0.01648 -0.02744 -8.59450 23.32322 10.57576 -1.92868 7.50456 -2.25601 -113.86518 -69.59952 -87.56380 -35.67112 56.56758 -106.56749 6.46395 3.95951 -2.58965 18.41079 1.30923 -4.84883 59.89189 0.81991 65.96426 28.85008 46.52649 110.62862 -4.41061 13.17597 -1.41863 -22.57739 -25.70172 -11.88045 385.32965 9.19411 -371.86279 -30.52316 0.40112 0.02166 3.20690 2.49665 -4.71966 -7.91434 9.05239 -16.31333 -359.59171 19.43462 368.33664 -15.07955 0.01523 -0.03753 -2.18564 -47.52998 -21.07580 
114.22671 92.92670 -104.15154 9.42813 -5.20578 -66.03070 -16.04242 5.05172 14.56955 -0.01036 0.01765 -0.02882 -9.36282 23.26378 11.73508 0.08989 7.92798 -4.76272 -114.68772 -69.41911 -88.84472 -36.39957 55.81328 -102.53054 7.34406 5.73646 -4.25273 19.03990 1.84613 -7.58871 62.36497 2.45087 67.14697 27.70389 45.65444 108.57852 -1.83653 15.25434 -7.33360 -22.86998 -24.21282 -16.26387 385.98651 5.96300 -369.38837 -23.67986 0.42405 -0.08322 -1.66494 5.43190 2.73978 -5.66111 13.11290 -19.18647 -362.46094 7.36248 369.06644 -12.63949 0.12011 -0.12704 -1.83984 -44.04386 -15.58239 
115.69468 92.37657 -104.34795 9.18385 -5.99363 -69.07913 -18.31918 5.15654 15.27257 -0.00737 0.01736 -0.02855 -10.18316 23.04912 13.30383 1.65547 8.10178 -5.46136 -113.65136 -68.79650 -88.55672 -37.38301 54.80461 -98.74533 8.57333 8.10059 -5.41318 19.72756 2.56648 -8.75977 64.79299 3.47691 67.65287 25.75956 43.98051 106.25325 2.18324 18.43451 -13.58126 -21.97907 -22.15447 -20.19055 386.52997 3.24377 -366.02567 -16.46371 0.35513 -0.14489 -8.31076 8.66933 9.04299 -3.61091 17.53401 -21.89608 -363.26312 -4.78428 368.56445 -9.33617 0.18585 -0.19363 -1.27240 -38.63946 -8.81151 
